<svg xmlns="http://www.w3.org/2000/svg" fill="none" viewBox="0 0 520 520">
  <path fill="#111113" d="M0 0h520v520H0z" />
  <path
    fill="#EDEEF0"
    d="M143.949 427V113.545h86.812v88.56l-12.235-25.636c9.322-22.14 24.276-38.842 44.862-50.106 20.587-11.652 45.64-17.479 75.16-17.479v83.899c-3.885-.388-7.38-.583-10.488-.583-3.107-.388-6.409-.582-9.905-.582-24.858 0-45.056 7.186-60.593 21.557-15.148 13.983-22.723 35.929-22.723 65.837V427h-90.89Zm212.464 2.913c-8.545 0-15.925-3.107-22.14-9.322-5.826-6.215-8.739-13.789-8.739-22.722 0-9.323 2.913-16.897 8.739-22.723 6.215-5.826 13.595-8.739 22.14-8.739 8.546 0 15.731 2.913 21.558 8.739 6.214 5.826 9.322 13.4 9.322 22.723 0 8.933-3.108 16.507-9.322 22.722-5.827 6.215-13.012 9.322-21.558 9.322Z"
  />
</svg>
